/* XPM */
static char *_2d3de9f0f8d4cb083dca2375afbd490yc37s2Etxrj5NZPt[] = {
/* columns rows colors chars-per-pixel */
"32 32 10 1 ",
"  c #21110D",
". c #342319",
"X c #242A3D",
"o c #503625",
"O c #755338",
"+ c #414B66",
"@ c #677598",
"# c #84858B",
"$ c #B6BEC8",
"% c white",
/* pixels */
"%%%%%%%%%%%%%%%%%%%%%%%%%%%%%%%%",
"%%%%%%%%%%%%%%%%%%%%%%%%%%%%%%%%",
"%%%%%%%%%%%%%%%%%%%%%%%%%%%%%%%%",
"%%%%%%%%%%%%%%%%%%%%%%%%%%%%%%%%",
"%%%%%%%%%%%%%%%%%%%%%%%%%%%%%%%%",
"%%%%%%%%%%%%%%%%%%%%%%%%%%%%%%%%",
"%%                            %%",
"%%                            %%",
"  oooo@@@@oooooooooooo@@@@oooo  ",
"  oooo@@@@oooooooooooo@@@@oooo  ",
"  OOOO$$$$OOOOOOOOOOOO$$$$OOOO  ",
"  OOOO$$$$OOOOOOOOOOOO$$$$OOOO  ",
"  OOOO$$$$OOOOOOOOOOOO$$$$OOOO  ",
"  OOOO$$$$OOOOOOOOOOOO$$$$OOOO  ",
"  ooOO$$$$OOOOOOOOOOOO$$$$OOoo  ",
"  ooOO$$$$OOOOOOOOOOOO$$$$OOoo  ",
"  oooo@@@@oooooooooooo@@@@oooo  ",
"  oooo@@@@oooooooooooo@@@@oooo  ",
"  ++@@@@@@@@$$$$$$$$@@@@@@@@++  ",
"  ++@@@@@@@@$$$$$$$$@@@@@@@@++  ",
"##  ..++++..++XXXX++..++++..  ##",
"##  ..++++..++XXXX++..++++..  ##",
"##  ..@@@@oo@@@@@@@@oo@@@@..  ##",
"##  ..@@@@oo@@@@@@@@oo@@@@..  ##",
"##  ..@@@@oooooooooooo@@@@..  ##",
"##  ..@@@@oooooooooooo@@@@..  ##",
"####  @@@@oooooooooooo@@@@  ####",
"####  @@@@oooooooooooo@@@@  ####",
"%%############################%%",
"%%############################%%",
"%%%%%%####################%%%%%%",
"%%%%%%####################%%%%%%"
};
