/* XPM */
static char *result[] = {
/* columns rows colors chars-per-pixel */
"32 32 53 1 ",
"  c black",
". c #21110D",
"X c #2D1E16",
"o c #312117",
"O c #342319",
"+ c #36241A",
"@ c #37251A",
"# c #38261B",
"$ c #3A271B",
"% c #3A271C",
"& c #3B281C",
"* c #3C281C",
"= c #3D291D",
"- c #3D2A1D",
"; c #402B1E",
": c #412C1F",
"> c #432D1F",
", c #4C341F",
"< c #432D20",
"1 c #442E20",
"2 c #452F20",
"3 c #462F21",
"4 c #473122",
"5 c #483122",
"6 c #493122",
"7 c #4A3222",
"8 c #4C3323",
"9 c #4D3424",
"0 c #4E3524",
"q c #4E3625",
"w c #503625",
"e c #533927",
"r c #543925",
"t c #5F422D",
"y c #64442A",
"u c #64462B",
"i c #61442E",
"p c #6B4A28",
"a c #77532B",
"s c #7B562C",
"d c #654831",
"f c #644A31",
"g c #664C31",
"h c #6A4A32",
"j c #755338",
"k c #D09243",
"l c #D99945",
"z c #D99B47",
"x c #D2994A",
"c c #DBA14D",
"v c #DCA450",
"b c #DFC476",
"n c #E9CE7C",
/* pixels */
"................................",
"................................",
"hhhhhhhhhhhhhhhhhhhhhhhhhhhhhhhh",
"jjjjjjjjjjjjjjjjjjjjjjjjjjjjjjjj",
"jjjjjjjjjjjjjjjjjjjjjjjjjjjjjjjj",
"jjjjjjjjjjjjjjjjjjjjjjjjjjjjjjjj",
"tteqqqqqqqqqqqqqqqqqqqqqqqqqqett",
"ww*OOOOOOOOOOOOOOOOOOOOOOOOOO*ww",
"ii:O$::::+O&::::::::&O+::::$O:ii",
"jj4O;wwww#O1wwwwwwww1O#wwww;O4jj",
"jj4O;wwww;=5wwwwwwww1O#wwww;O4jj",
"jj4O;wwwwwwwwwwwwwww1O#wwww;O4jj",
"jj4O;wwwwwwwwwwwwwww3$=wwww;O4jj",
"jj4O;wwwwwwwwwwwwwwwwwwwwww;O4jj",
"jj4O;wwwwwwwwwwwwwwwwwwwwww;O4jj",
"jj4O;wwwwwwwwwwwwwwwwwwwwww;O4jj",
"jj4O;wwwwwwwwwwwwwwwwwwwwww;O4jj",
"jj4O;wwwwwwwwwwwwwwwwwfbbxkaO4jj",
"jj4O;wwwwwwwwwwwwwwwwwgnnclsO4jj",
"jj4O;wwwwwwwwwwwwwwwwwuvvzlsO4jj",
"jj4O;wwwwwwwwwwwwwwwwwyllllsO4jj",
"jj4O;wwwwwwwwwwwwwwwwwrpppp,O4jj",
"jj4O;wwwwwwwwwwwwwwwww8OOOOOO4jj",
"jj4O;wwww<:7wwwwwwwwww0>>>>%O4jj",
"jj4O;wwww#O1wwwwwwwwwwwwwww;O4jj",
"jj4O;wwww#O1wwwwwwwwwwwwwww;O4jj",
"jj4O;wwww#O1wwwwwwwwwwwwwww;O4jj",
"jj4O;wwww#O1wwwwwwww967wwww;O4jj",
"jj4O;wwww#O1wwwwwwww1O#wwww;O4jj",
"dd-X@2222oX&22222222&Xo2222@X-dd",
"                                ",
"                                "
};
