/* XPM */
static char *_f302beac37c485fbf1c5142ff2fdcf6UAaw7mefMQFB8uh1[] = {
/* columns rows colors chars-per-pixel */
"32 32 156 2 ",
"   c #110B06",
".  c #130D08",
"X  c #160E08",
"o  c #12100F",
"O  c #13110F",
"+  c #1A110A",
"@  c #1C120B",
"#  c #1D130C",
"$  c #141210",
"%  c #20140C",
"&  c #20160F",
"*  c #23170E",
"=  c #24160D",
"-  c #261A0F",
";  c #2B1A0F",
":  c #271A10",
">  c #261B13",
",  c #2D1E12",
"<  c #2E1F12",
"1  c #2D241E",
"2  c #382315",
"3  c #382416",
"4  c #382516",
"5  c #3E2B1D",
"6  c #3E2A1E",
"7  c #2E3038",
"8  c #3A3B3D",
"9  c #412818",
"0  c #452B1A",
"q  c #472D1B",
"w  c #492E1C",
"e  c #482F1C",
"r  c #4A2F1C",
"t  c #48301D",
"y  c #4B301D",
"u  c #4A321E",
"i  c #4C311D",
"p  c #4D321E",
"a  c #412A21",
"s  c #4A3224",
"d  c #503520",
"f  c #523620",
"g  c #533721",
"h  c #563922",
"j  c #563923",
"k  c #573A23",
"l  c #50372A",
"z  c #534639",
"x  c #60412A",
"c  c #66452E",
"v  c #77523A",
"b  c #7C563D",
"n  c #1D2B43",
"m  c #172E5A",
"M  c #1B335F",
"N  c #223451",
"B  c #183770",
"V  c #39527C",
"C  c #3A537D",
"Z  c #474648",
"A  c #4C494A",
"S  c #49494D",
"D  c #534C43",
"F  c #574E42",
"G  c #544E4C",
"H  c #55504D",
"J  c #57524E",
"K  c #5F564B",
"L  c #58504E",
"P  c #565656",
"I  c #6A5647",
"U  c #66574D",
"Y  c #6A5748",
"T  c #695D55",
"R  c #6A5D55",
"E  c #6B5E56",
"W  c #605C5A",
"Q  c #6C6050",
"!  c #766251",
"~  c #766352",
"^  c #606165",
"/  c #67676C",
"(  c gray44",
")  c #747270",
"_  c gray47",
"`  c #896046",
"'  c #896047",
"]  c #87644B",
"[  c #92674C",
"{  c #93684D",
"}  c #926B4F",
"|  c #92735B",
" . c #9E795E",
".. c #A67659",
"X. c #AB7B5D",
"o. c #AC7B5E",
"O. c #AD7C5E",
"+. c #9B7C63",
"@. c #827274",
"#. c #85787D",
"$. c #9D8A72",
"%. c #A58165",
"&. c #A68C71",
"*. c #A8947B",
"=. c #B59073",
"-. c #375E98",
";. c #295EAC",
":. c #295FAD",
">. c #3261A6",
",. c #2E64B1",
"<. c #7E7F84",
"1. c #74768A",
"2. c #4571AF",
"3. c #5277AB",
"4. c #877D86",
"5. c #84858B",
"6. c #8E8E8E",
"7. c #989085",
"8. c #99938A",
"9. c #8D8A91",
"0. c #909090",
"q. c #9B9B9B",
"w. c #AF9B81",
"e. c #B5A085",
"r. c #BEA588",
"t. c #BEA688",
"y. c #BFA78A",
"u. c #BDA88C",
"i. c #9DA1B0",
"p. c #AAAAAA",
"a. c #ACACAC",
"s. c #AEAFB2",
"d. c #B0B1B4",
"f. c gray71",
"g. c gray72",
"h. c #B8B8BB",
"j. c #BABABD",
"k. c gray",
"l. c #C1AC8F",
"z. c #C6C6C6",
"x. c #C8C8C8",
"c. c #CECECE",
"v. c gray82",
"b. c gray83",
"n. c gray84",
"m. c #D6D7D8",
"M. c #E2E2E2",
"N. c #E4E4E5",
"B. c #EAEAEA",
"V. c #ECECEC",
"C. c #EFEFF0",
"Z. c #F1F1F2",
"A. c #F3F3F4",
"S. c #F4F4F4",
"D. c gray96",
"F. c white",
/* pixels */
"F.F.F.F.F.F.F.F.F.F.F.F.F.F.F.F.F.F.F.F.F.F.F.F.F.F.F.F.F.F.F.F.",
"F.F.F.F.F.F.F.F.F.F.F.F.F.F.F.F.F.F.F.F.F.F.F.F.F.F.F.F.F.F.F.F.",
"F.F.F.F.F.F.F.F.F.F.F.F.F.F.F.F.F.F.F.F.F.F.F.F.F.F.F.F.F.F.F.F.",
"F.F.F.F.F.F.F.F.F.F.F.F.F.F.F.F.F.F.F.F.F.F.F.F.F.F.F.F.F.F.F.F.",
"F.F.F.F.F.F.F.F.F.F.F.F.F.F.F.F.F.F.F.F.F.F.F.F.F.F.F.F.F.F.F.F.",
"F.F.F.F.F.F.F.F.F.F.F.F.F.F.F.F.F.F.F.F.F.F.F.F.F.F.F.F.F.F.F.F.",
"F.F.F.F.F.F.F.F.F.F.F.F._ O $ O v.$ P B.A.F.F.F.F.F.F.F.F.F.F.F.",
"F.F.F.F.F.F.F.F.F.F.F.F.( , g q X e .   ) V.F.F.F.F.F.F.F.F.F.F.",
"F.F.F.F.F.F.F.F.F.F.F.n.L @ u k r k k f * a.F.F.F.F.F.F.F.F.F.F.",
"F.F.F.F.F.F.F.F.F.F.n.H 2 g k k i k k k 4 P M.F.F.F.F.F.F.F.F.F.",
"F.F.F.F.F.F.F.F.F.F.p.* g k i e 9 i k k f @ z.F.F.F.F.F.F.F.F.F.",
"F.F.F.F.F.F.F.F.F.F.p.- k k 0 ' { { b i k @ z.F.F.F.F.F.F.F.F.F.",
"F.F.F.F.F.F.F.F.F.F.p.: k i ' X.O.o...v s * x.F.F.F.F.F.F.F.F.F.",
"F.F.F.F.F.F.F.F.F.F.f.1 e } a w.l.$.l ] : p.F.F.F.F.F.F.F.F.F.F.",
"F.F.F.F.F.F.F.F.F.F.F.6.5 &.Y e.l.*.~ t.z p.F.F.F.F.F.F.F.F.F.F.",
"F.F.F.F.F.F.F.F.F.F.F.k.U +.y.l.l.l.t.| T c.F.F.F.F.F.F.F.F.F.F.",
"F.F.F.F.F.F.F.F.F.F.F.F.( s %.=.=.=. .5 6.F.F.F.F.F.F.F.F.F.F.F.",
"F.F.F.F.F.F.F.F.F.F.F.F.( ; c #.4.@.x = 6.F.F.F.F.F.F.F.F.F.F.F.",
"F.F.F.F.F.F.F.F.F.F.F.F.( 3 k 1.i.9.k , 6.F.F.F.F.F.F.F.F.F.F.F.",
"F.F.F.F.F.F.F.F.F.F.F.0.Q u.I >.,.-.~ y.F a.F.F.F.F.F.F.F.F.F.F.",
"F.F.F.F.F.F.F.F.F.F.F.q.U 8.2.;.B ;.3.7.D f.F.F.F.F.F.F.F.F.F.F.",
"F.F.F.F.F.F.F.F.F.F.C.s.8 N V m 7 M V n S h.D.F.F.F.F.F.F.F.F.F.",
"F.F.F.F.F.F.F.F.F.F.m.5.^ L T Z <.A T G / 5.N.F.F.F.F.F.F.F.F.F.",
"F.F.F.F.F.F.F.F.F.F.Z.d.5.5.5.5.5.5.5.5.5.j.D.F.F.F.F.F.F.F.F.F.",
"F.F.F.F.F.F.F.F.F.F.F.A.N.N.N.N.N.N.N.N.N.D.F.F.F.F.F.F.F.F.F.F.",
"F.F.F.F.F.F.F.F.F.F.F.F.F.F.F.F.F.F.F.F.F.F.F.F.F.F.F.F.F.F.F.F.",
"F.F.F.F.F.F.F.F.F.F.F.F.F.F.F.F.F.F.F.F.F.F.F.F.F.F.F.F.F.F.F.F.",
"F.F.F.F.F.F.F.F.F.F.F.F.F.F.F.F.F.F.F.F.F.F.F.F.F.F.F.F.F.F.F.F.",
"F.F.F.F.F.F.F.F.F.F.F.F.F.F.F.F.F.F.F.F.F.F.F.F.F.F.F.F.F.F.F.F.",
"F.F.F.F.F.F.F.F.F.F.F.F.F.F.F.F.F.F.F.F.F.F.F.F.F.F.F.F.F.F.F.F.",
"F.F.F.F.F.F.F.F.F.F.F.F.F.F.F.F.F.F.F.F.F.F.F.F.F.F.F.F.F.F.F.F.",
"F.F.F.F.F.F.F.F.F.F.F.F.F.F.F.F.F.F.F.F.F.F.F.F.F.F.F.F.F.F.F.F."
};
