/* XPM */
static char *_d2c14ee8aa84e74cff91d0aa047bc10RjHPXO7jmOf22LA4[] = {
/* columns rows colors chars-per-pixel */
"32 32 223 2 ",
"   c #242A3D",
".  c #242B3E",
"X  c #252B3E",
"o  c #252B3F",
"O  c #252C3F",
"+  c #262C3F",
"@  c #262C40",
"#  c #262D40",
"$  c #272D41",
"%  c #272E41",
"&  c #282E42",
"*  c #282F43",
"=  c #292F43",
"-  c #292F44",
";  c #293044",
":  c #293045",
">  c #2A3044",
",  c #2A3145",
"<  c #2B3146",
"1  c #2B3246",
"2  c #2B3247",
"3  c #2C3347",
"4  c #2C3348",
"5  c #2C3349",
"6  c #2D3449",
"7  c #2D344A",
"8  c #2D354A",
"9  c #2E354A",
"0  c #2E354B",
"q  c #2E364B",
"w  c #2E364C",
"e  c #2F364C",
"r  c #2F374C",
"t  c #2F374D",
"y  c #30374D",
"u  c #30384E",
"i  c #30384F",
"p  c #31384F",
"a  c #31394F",
"s  c #313950",
"d  c #323A50",
"f  c #323A51",
"g  c #333B51",
"h  c #333B53",
"j  c #343C53",
"k  c #343D54",
"l  c #353D54",
"z  c #353D55",
"x  c #363E56",
"c  c #373F56",
"v  c #373F58",
"b  c #374058",
"n  c #374059",
"m  c #384058",
"M  c #384059",
"N  c #384159",
"B  c #39425A",
"V  c #39425B",
"C  c #3A425B",
"Z  c #3A435B",
"A  c #3A435C",
"S  c #3B445D",
"D  c #3B445E",
"F  c #3C445D",
"G  c #3C455D",
"H  c #3C455E",
"J  c #3C455F",
"K  c #3C465F",
"L  c #3D465F",
"P  c #3D4660",
"I  c #3D4761",
"U  c #3E4761",
"Y  c #3F4861",
"T  c #3E4862",
"R  c #3F4862",
"E  c #3F4962",
"W  c #3F4963",
"Q  c #3F4964",
"!  c #404962",
"~  c #404963",
"^  c #404A64",
"/  c #414A64",
"(  c #404A65",
")  c #414B65",
"_  c #414B66",
"`  c #424C66",
"'  c #424C67",
"]  c #434C67",
"[  c #434D67",
"{  c #424C68",
"}  c #424D68",
"|  c #434D68",
" . c #434D69",
".. c #434E69",
"X. c #444D68",
"o. c #444E68",
"O. c #444E69",
"+. c #444E6A",
"@. c #444F6A",
"#. c #454F6A",
"$. c #444F6B",
"%. c #454F6B",
"&. c #46506B",
"*. c #47516B",
"=. c #45506C",
"-. c #46506C",
";. c #46516C",
":. c #47516C",
">. c #46516D",
",. c #47516D",
"<. c #47526D",
"1. c #47516E",
"2. c #47526E",
"3. c #48526E",
"4. c #48526F",
"5. c #48536F",
"6. c #485370",
"7. c #495370",
"8. c #495470",
"9. c #495471",
"0. c #4A5571",
"q. c #4B5571",
"w. c #4A5572",
"e. c #4B5672",
"r. c #4B5673",
"t. c #4C5670",
"y. c #4C5773",
"u. c #4B5674",
"i. c #4C5774",
"p. c #4C5775",
"a. c #4D5874",
"s. c #4C5875",
"d. c #4D5875",
"f. c #4D5876",
"g. c #4D5976",
"h. c #4E5976",
"j. c #4E5977",
"k. c #4E5A77",
"l. c #4F5A78",
"z. c #4F5B78",
"x. c #4F5B79",
"c. c #505B78",
"v. c #505B79",
"b. c #505C7A",
"n. c #515C7A",
"m. c #515D7A",
"M. c #515C7B",
"N. c #515D7B",
"B. c #525D7B",
"V. c #515D7C",
"C. c #525E7C",
"Z. c #525E7D",
"A. c #535F7E",
"S. c #54607F",
"D. c #556180",
"F. c #556281",
"G. c #566281",
"H. c #566282",
"J. c #576382",
"K. c #576383",
"L. c #576483",
"P. c #586484",
"I. c #586585",
"U. c #596585",
"Y. c #596685",
"T. c #596686",
"R. c #5A6787",
"E. c #5B6787",
"W. c #5B6888",
"Q. c #5B6889",
"!. c #5C6888",
"~. c #5D698A",
"^. c #5D6A8A",
"/. c #5D6A8B",
"(. c #5E6B8C",
"). c #5E6C8D",
"_. c #5F6C8D",
"`. c #5F6D8E",
"'. c #606D8E",
"]. c #606D8F",
"[. c #606E8F",
"{. c #616E90",
"}. c #616F90",
"|. c #616F91",
" X c #626F91",
".X c #627091",
"XX c #627092",
"oX c #637092",
"OX c #637193",
"+X c #647193",
"@X c #647194",
"#X c #647294",
"$X c #647295",
"%X c #657295",
"&X c #657395",
"*X c #657396",
"=X c #667496",
"-X c #667497",
";X c #677497",
":X c #677598",
">X c #687698",
",X c #687699",
"<X c #697699",
"1X c #697799",
"2X c #6B799B",
"3X c #6E7B9C",
"4X c #727F9E",
"5X c #7481A0",
"6X c #7784A0",
"7X c #7B87A3",
"8X c #7E89A0",
"9X c #7D89A5",
"0X c #828DA4",
"qX c #808CA7",
"wX c #818DA7",
"eX c #828EA8",
"rX c #8793AB",
"tX c #8995AD",
"yX c #8A95AC",
"uX c #8A96AC",
"iX c #8A96AD",
"pX c #8B97AE",
"aX c #8D98AF",
/* pixels */
"iX,X>XJ.9 z.;X<.5.;X2X2X;X:X;XuX1X;XR.9 h.:Xu. .;Xn.R.:X,X,X,X:X",
"X.iX8Xh.2X;XI.' S.:X9XaXaXaX3X' uX0X0.2X:X2X2XH.' L.:XwXaXaXaX2X",
"+ I 5.pXwX:X$Xn.S.7X5X:X:X:XrX, W ;.pXpXpXpXiX6Xz.D.9X5X:X:X:XiX",
"3 + m >X;XXX0.@ k R.:X;XXXXXXXu . g :X;X:X$XXX<.+ b W.:X:X#XXXXX",
"(.4 ,X;XL.( ( k 5.#XXX`.0.( Q `.@ ,X:X;X[.H.Q ' s u.:X:XXX<.( ' ",
"Q 2 ].I.<.( ( h  .B. .' ( ( { { , ]. XI. .;. .Q s <.$X#X6.( ' ( ",
"C @ I 3.H.( W y e n.h.( { ( ( G + G ' Q 0.D.Q W y i B.u.( ( ( ' ",
"2 + & A A A i +   s A $.u.0.0.9   + C Z G b G u   + s A <.u.0.0.",
"3.+ 9 k k k b 9 +   e I.:X`.!.s.@ 4 c k v k v k 4 +   i !.(.!.:X",
"I.i B.,X:X:X,Xn.9 e z.!.!.c. .R.e c.,X,X,X:X:X:Xh.2 s B.W.<.( R.",
"{ B.,X$XR.R.W.`.%.%.0.{ ( J.%.' z.:X$XR.I.W.R.R.]./ <.7.( '  .( ",
"C :XI.B.' Q ' s.H k ( ( ' ( ( k :XI.H.( ' ( ' ( h.C k ' ' ( ' ( ",
"@ 0.' ' Q ' ' G 4 e k k v c l + i.( ' ( ( ' ( ' G 2 e W ( ( ' ( ",
"Q ' n.h.W k Q 0.( ( / ( 2 + y / ( B.z.W k W B.B.<.( Q b k ( z.B.",
":X;XH.S.=.9 B.;X!.H.H. X0.2 i.$X:XH.H.<.3 h.:X`.H.H. Xi.2 0.$X,X",
"H.B.Q ;.;.Z `.H.u.( h.S.S.4 '.H.B.( $.3.C `.H.0.' y.S.H.e W.H.H.",
"( ' ( I 9 k u. .' Q h.<.Q 2 / '  .( W e s h.( ( ( h.7.( 4 I ( ( ",
"s s s 9 + & C ( (  .Q ( k +   s s s e   & v (  .( ( ( k & + y s ",
"+   2 0.7.0.Q y A z.L.L.h.0.0.@ + & 0.0.0.c.L.;.i H c.z.0.0.q.q.",
"0.& n.:X Xc.$.9 Q ].:X;XL.z.z.h.+ c.:X:X:X`.z. .9 (  X:X,XD.B.c.",
"i.2 ;X Xi. .( h <.I.h.z.=.Q ' h.@ ,X:XXXz.0. .Q s 0.:X;XD. .( ( ",
"Q 2 z.n.B.( ( k A H.0.( ' Q ' Q @ z.h.0.6.B.Q ' g H `.H.%.(  .( ",
"2 + e  .7.{ C & - ( $.(  .' Q e + e Q '  .6.' b , , '  .' ' ( ( ",
"b   @ 5 4 2 &   + - 4 c.!.W.`.P   + 5 5 5 5 2 *     & 9 n.!.`.!.",
"W.@ Q L.H.L.L.W +   ;.XX;Xz.0.!.+ I J.H.L.L.L.L.Z     <.XXz.0.$X",
"6.Q `.;X;X:X;X].L ' h.5.0. .Q 0.H ].>X>X;X;X;X;X`.C <.h.0. .{ 7.",
" .XX;X`.5.5.5.L. .C  .' Q Q ' Q  X;X].5.5.5.3.5.I./ G  .( ' ( ( ",
"5 XX<.<.' ( / %.k g ' ' ' ' ' 2 $X<.;.' ( ' ' (  .s b ( ' ( (  .",
"+ 9 ' ' ( ' ' l + @ & & & @ @   9 Q ( { ' ( ' ' g + + C ( ( ( ' ",
" XXXXX!.C @ W XX]. X X].s + H `. X#X(.A & H XX+XXX X].C & I `.+X",
";XXX .0.n.C $X;XS. . .!.$Xy !.:X$X .7.H.b XX;XH. . .I.$Xl I.:X:X",
" .' ( ' C H I.' ' ' I.h.( 2 `.=.'  .( A b R. .' ' L.z.' 2 I.<. ."
};
